<?xml version="1.0" encoding="UTF-8"?> <svg xmlns="http://www.w3.org/2000/svg" id="Layer_2" data-name="Layer 2" viewBox="0 0 835.53 181.74"><defs><style> .cls-1 { fill: #1c2e23; stroke-width: 0px; } </style></defs><g id="Layer_1-2" data-name="Layer 1"><path class="cls-1" d="M173.17,91.84l8.12-8.13-37.8-37.8c-3.43-3.42-5.31-7.99-5.31-12.84s1.89-9.42,5.31-12.84c3.42-3.43,7.99-5.31,12.84-5.31s9.42,1.89,12.84,5.31l4.27,4.27,8.13-8.13-4.27-4.27c-5.78-5.78-13.37-8.67-20.97-8.67s-15.19,2.89-20.97,8.67c-5.6,5.6-8.68,13.05-8.68,20.97s3.08,15.37,8.68,20.97l37.8,37.8h.01ZM205.61,70.72l-44.98,44.98c-3.91,3.91-9.1,6.06-14.62,6.06-11.4,0-20.68-9.28-20.68-20.68,0-5.52,2.15-10.72,6.06-14.62l12.62-12.62-8.13-8.13-12.62,12.62c-6.08,6.08-9.42,14.15-9.42,22.75,0,17.74,14.43,32.17,32.17,32.17,8.59,0,16.67-3.35,22.75-9.42l53.35-53.35-16.5.25h0ZM216.28,134.95l.11-16.14-15.5-15.5-8.13,8.13,23.52,23.51h0ZM246.58,14.94v121.73c0,22.91-.37,41.19-10.53,41.19-13.11,0-15.52-28.35-31.56-28.35-7.25,0-12.18,5.22-12.18,12.65,0,10.75,16.58,19.58,41.15,19.58,28.82,0,52.09-18.29,52.09-44.89V14.94l9.61-12.01h-58.93l10.34,12.01h.01ZM54.27,14.94v121.73c0,22.91-.37,41.19-10.53,41.19-13.11,0-15.52-28.35-31.56-28.35-7.25,0-12.18,5.22-12.18,12.65,0,10.75,16.58,19.58,41.15,19.58,28.82,0,52.09-18.29,52.09-44.89V14.94l9.61-12.01h-58.93l10.34,12.01h0Z"></path><path class="cls-1" d="M322.3,13.05c0,5.46-4.24,9.41-9.41,9.41s-9.41-3.95-9.41-9.41,4.24-9.46,9.41-9.46,9.41,3.95,9.41,9.46ZM320.28,13.05c0-4.33-3.29-7.53-7.39-7.53s-7.34,3.2-7.34,7.53,3.34,7.44,7.34,7.44,7.39-3.2,7.39-7.44ZM315.06,14.18l2.4,2.87h-2.54l-2.17-2.64h-1.18v2.64h-2.17v-8.57h4.14c2.16,0,3.48,1.18,3.48,2.87,0,1.32-.75,2.35-1.98,2.82h.02ZM313.51,12.58c.89,0,1.46-.47,1.46-1.18,0-.66-.56-1.08-1.46-1.08h-1.93v2.26s1.93,0,1.93,0Z"></path><path class="cls-1" d="M410.93,36.96h-37.98v4.68h33.09c-1.02,15.68-12.32,28-28.91,28s-30.03-13.34-30.03-30.44,13.03-30.44,29.83-30.44c12.63,0,22.6,6.01,27.18,16.19l4.58-1.73c-4.89-11.81-16.7-19.24-31.77-19.24-19.65,0-35.02,15.48-35.02,35.23s15.37,35.23,35.12,35.23,34.01-15.68,34.01-35.23c0-.61,0-1.43-.1-2.24h0Z"></path><rect class="cls-1" x="427.21" width="4.99" height="73.3"></rect><path class="cls-1" d="M473.12,22.4c-14.76,0-26.17,10.89-26.17,25.96s11.4,26.06,26.17,26.06,26.16-11,26.16-26.06-11.4-25.96-26.16-25.96ZM473.12,69.95c-11.91,0-21.28-9.06-21.28-21.58s9.37-21.58,21.28-21.58,21.28,8.96,21.28,21.58-9.37,21.58-21.28,21.58Z"></path><path class="cls-1" d="M540.52,22.3c-9.16,0-17.1,4.38-21.48,11.81V0h-4.99v73.3h4.99v-10.69c4.38,7.43,12.32,11.81,21.48,11.81,13.64,0,25.15-10.18,25.15-26.06s-11.51-26.06-25.15-26.06ZM539.91,69.95c-10.69,0-20.87-8.25-20.87-21.58s10.18-21.58,20.87-21.58c11.4,0,20.87,8.35,20.87,21.58s-9.47,21.58-20.87,21.58Z"></path><path class="cls-1" d="M621.45,23.52v10.49c-4.38-7.33-12.32-11.71-21.38-11.71-13.64,0-25.25,10.28-25.25,26.06s11.61,26.06,25.25,26.06c9.06,0,17-4.28,21.38-11.61v10.49h4.99V23.51h-4.99ZM600.58,69.95c-11.4,0-20.87-8.25-20.87-21.58s9.47-21.58,20.87-21.58c10.69,0,20.87,8.35,20.87,21.58s-10.18,21.58-20.87,21.58Z"></path><rect class="cls-1" x="645.98" width="4.99" height="73.3"></rect><path class="cls-1" d="M766.92,116.9c-7.53,0-13.44,2.85-17.51,7.74v-6.31h-10.59v50.5h10.59v-23.31c0-12.73,6.01-18.84,15.07-18.84,7.23,0,12.01,5.5,12.01,13.75v28.4h10.69v-30.54c0-12.63-8.14-21.38-20.26-21.38h0Z"></path><path class="cls-1" d="M832.28,157.52c-2.65,1.73-5.91,2.75-8.55,2.75-4.99,0-8.35-3.05-8.35-9.37v-23.82h17.31v-8.76h-17.31v-15.68h-10.59v15.68h-10.89v8.76h10.89v24.54c0,12.52,7.33,18.63,18.22,18.63,4.28,0,7.74-1.02,12.52-3.87l-3.26-8.86h.01Z"></path><polygon class="cls-1" points="343.53 100.61 343.53 168.82 354.42 168.82 354.42 140.62 389.65 140.62 389.65 130.74 354.42 130.74 354.42 110.48 393.41 110.48 393.41 100.61 354.42 100.61 343.53 100.61"></polygon><path class="cls-1" d="M439.22,141.64c0,12.73-5.9,18.84-14.97,18.84-7.33,0-12.12-5.6-12.12-13.85v-28.3h-10.59v30.44c0,12.73,8.04,21.48,20.26,21.48,7.43,0,13.34-2.75,17.41-7.64v6.21h10.59v-50.5h-10.59v23.31h0Z"></path><path class="cls-1" d="M645.99,116.9c-8.35,0-14.76,3.56-18.83,9.26-3.26-5.91-9.57-9.26-16.8-9.26s-12.52,2.75-16.19,7.13v-5.7h-10.59v50.5h10.59v-25.05c0-11.3,5.29-17.1,13.44-17.1,6.52,0,11.4,4.68,11.4,12.12v30.03h10.59v-25.05c0-11.3,5.4-17.1,13.64-17.1,6.52,0,11.4,4.68,11.4,12.12v30.03h10.49v-32.17c0-11.91-8.65-19.75-19.14-19.75h0Z"></path><polygon class="cls-1" points="529.51 127.08 529.52 127.08 529.52 168.82 540.11 168.82 540.11 118.32 529.49 118.32 529.51 127.08"></polygon><path class="cls-1" d="M534.82,96.54c-3.97,0-6.82,3.05-6.82,6.62,0,3.77,2.85,6.52,6.82,6.52s6.72-2.75,6.72-6.52c0-3.56-2.85-6.62-6.72-6.62Z"></path><rect class="cls-1" x="556.9" y="95.52" width="10.59" height="73.3"></rect><path class="cls-1" d="M505.39,112.32c0-5.6,3.46-8.86,8.96-8.86,1.93,0,3.97.41,6.01,1.22l2.44-8.55c-2.75-1.42-5.8-2.14-9.16-2.14-11.4,0-18.84,7.03-18.84,18.33v6.01h-8.25v8.76h8.25v41.74h10.59v-41.74h13.98l6.88-8.76h-20.85v-6.01h-.01Z"></path><path class="cls-1" d="M727.12,142.45h-.1c-.41-15.17-11.61-25.55-25.15-25.55-14.25,0-26.17,10.69-26.17,26.78s12.01,26.57,25.76,26.57c11.2,0,20.16-5.29,24.33-15.88l-9.47-2.04c-3.56,7.13-9.26,8.76-14.86,8.76-7.43,0-14.25-5.6-15.27-14.97h40.93v-3.67h0ZM686.5,138.58c1.63-8.14,8.76-12.32,15.37-12.32s12.73,4.07,14.46,12.32h-29.83Z"></path><rect class="cls-1" x="465.89" y="95.52" width="10.59" height="73.3"></rect></g></svg> 